# xmcd
#
# Track frame offsets:
#	150
#	10101
#	23712
#	36628
#	50069
#	63089
#	73771
#	87056
#	99606
#	112794
#	122874
#	135953
#	150321
#	163768
#	173519
#	186365
#	199163
#	210712
#	222912
#	238617
#	248959
#	260819
#	272477
#	286905
#	299871
#
# Disc length: 4165 seconds
#
# Revision: 7
# Processed by: cddbd v1.5.2PL0 Copyright (c) Steve Scherf et al.
# Submitted via: audiograbber 1.83.01
#
DISCID=72104319
DTITLE=Various Artist - Essential Blues Anthology CD2
DYEAR=2008
DGENRE=Blues
TTITLE0=John Lee Hooker - Dimples
TTITLE1=Slim Harpo - I'm A King Bee
TTITLE2=Muddy Waters - Got My Mojo Workin'
TTITLE3=Bobby 'Blue' Bland - Farther Up the Road
TTITLE4=Jimmy Reed - You Got Me Dizzy
TTITLE5=Clarence 'Frogman' Henry - Ain't Got No Home
TTITLE6=Percy Mayfield - Are You Out There
TTITLE7=Larry Liggett - That Man Is Walking
TTITLE8=Howlin' Wolf - Evil
TTITLE9=Dale Hawkins - Susie Q
TTITLE10=Lowell Fulson - Trouble, Trouble
TTITLE11=Danny Overbea - Forty Cups Of Coffee
TTITLE12=Jimmy Nelson - Free And Easy Mind
TTITLE13=Billy 'Curley' Barrix - Cool Off Baby
TTITLE14=Little Walter - Boom Boom (Out Goes The Lights)
TTITLE15=Bobby Charles - See You Later Alligator
TTITLE16=Jimmy Binkley - Wine Wine Wine
TTITLE17=John Brim - Be Careful What You Do
TTITLE18=Eddie Boyd - 24 Hours
TTITLE19=J.B. Lenoir - Don't Touch My Head
TTITLE20=Willie Mabon - I'm Mad
TTITLE21=Sonny Boy Williamson - Don't Start Me Talkin'
TTITLE22=Muddy Waters - Rock Me
TTITLE23=Jimmy Witherspoon - When The Lights Go Out
TTITLE24=Bo Diddley - Bo Diddley
EXTD=
EXTT0=
EXTT1=
EXTT2=
EXTT3=
EXTT4=
EXTT5=
EXTT6=
EXTT7=
EXTT8=
EXTT9=
EXTT10=
EXTT11=
EXTT12=
EXTT13=
EXTT14=
EXTT15=
EXTT16=
EXTT17=
EXTT18=
EXTT19=
EXTT20=
EXTT21=
EXTT22=
EXTT23=
EXTT24=
PLAYORDER=
